<?xml version="1.0" encoding="utf-8"?>
<!-- Generator: Adobe Illustrator 23.1.0, SVG Export Plug-In . SVG Version: 6.00 Build 0)  -->
<svg version="1.1" id="fogata" xmlns="http://www.w3.org/2000/svg" xmlns:xlink="http://www.w3.org/1999/xlink" x="0px" y="0px"
	 viewBox="0 0 343.6012 97.0449" enable-background="new 0 0 343.6012 97.0449" xml:space="preserve">
<g>
	<path fill="#FF3050" d="M100.4928,43.9302c-2.8447-0.2314-5.457,0.7549-7.8369,2.9604L87.0836,57.165h28.2988l-3.4834,6.4438
		H84.0357l-6.4434,12.3643l-0.0869,0.2612l-4.0928,8.4463h-10.71l4.6152-9.23L81.859,46.542
		c2.7275-3.9468,6.5-6.6743,11.3193-8.1846c1.335-0.2314,2.6846-0.4058,4.0488-0.5225c1.3633-0.1157,2.7432-0.1743,4.1357-0.1743
		h33.6982l-3.8311,6.2695h-15.2383H100.4928z"/>
	<path fill="#FF3050" d="M166.7555,58.9067L157.526,78.063c-1.916,4.2378-6.7051,6.3564-14.3672,6.3564h-16.8926
		c-6.6172,0-9.9268-1.5376-9.9268-4.6152c0-0.4639,0.1455-1.1318,0.4355-2.0024l9.7529-19.4175
		c1.4502-3.8311,5.1074-5.6885,10.9707-5.5728h17.1533C162.5465,52.8115,166.5816,54.8442,166.7555,58.9067z M148.818,58.9067
		h-8.5332c-2.2061,0-3.8604,0.6963-4.9629,2.0898l-7.8369,15.3247c0.0576,1.2778,1.1611,1.9155,3.3096,1.9155l13.7568,0.0874
		c1.335-0.1743,2.4082-0.8408,3.2217-2.0029l7.9238-15.3247c-0.1738-1.3936-1.0742-2.0898-2.6992-2.0898H148.818z"/>
	<path fill="#FF3050" d="M212.7301,58.9067l-9.2295,18.9819l-3.2217,6.2695l-3.2217,6.4434
		c-2.2646,4.2949-5.6025,6.4434-10.0137,6.4434h-34.1328l3.1348-5.7466h25.9473c3.0762-0.1172,5.3115-1.1621,6.7051-3.1348
		l2.0029-3.8315l-18.46,0.0874c-6.6172,0-9.9268-1.5376-9.9268-4.6152c0-0.4639,0.1455-1.1318,0.4355-2.0024l9.7529-19.4175
		c1.4502-3.8311,5.1074-5.6885,10.9707-5.5728h17.1533C208.5211,52.8115,212.5562,54.8442,212.7301,58.9067z M194.7926,58.9067
		h-8.5332c-2.2061,0-3.8604,0.6963-4.9629,2.0898l-7.8369,15.3247c0.0576,1.2778,1.1611,1.9155,3.3096,1.9155l13.7568,0.0874
		l3.0479-0.0874l8.0977-17.2402c-0.1738-1.3936-1.0742-2.0898-2.6992-2.0898H194.7926z"/>
	<path fill="#FF3050" d="M245.2955,65.3501l2.3506-4.3535c-0.1738-1.3936-1.0742-2.0898-2.6992-2.0898h-26.9053l2.873-6.0952
		h25.6865c7.8945,0,11.9297,2.0327,12.1035,6.0952l-9.2295,19.1562c-1.916,4.2378-6.7051,6.3564-14.3672,6.3564h-16.8926
		c-6.6172,0-9.9268-1.5376-9.9268-4.6152c0-0.4639,0.1455-1.1318,0.4355-2.0024l4.876-9.665
		c0.9863-1.8574,2.6699-2.7866,5.0508-2.7866h24.4678H245.2955z M236.5006,71.6196h-14.6279l-2.4385,4.7017
		c0.0576,1.2778,1.1611,1.9155,3.3096,1.9155l13.7568,0.0874c1.2764-0.1743,2.4385-0.8408,3.4834-2.0029l2.5254-4.7017H236.5006z"/>
	<path fill="#FF3050" d="M274.5533,58.9067l-1.3066,2.0898l-7.8369,15.3247c0.1162,1.5103,1.2197,2.207,3.3096,2.0898h10.2744
		l-4.1797,5.9209h-10.7969c-6.502,0-9.6074-2.1768-9.3174-6.5303l9.7529-19.4175l9.1426-18.1113h9.752l-6.0947,12.6255h22.9873
		l-2.874,6.0083h-10.623H274.5533z"/>
	<path fill="#FF3050" d="M330.192,65.3501l2.3506-4.3535c-0.1738-1.3936-1.0742-2.0898-2.6992-2.0898h-26.9053l2.873-6.0952h25.6865
		c7.8945,0,11.9297,2.0327,12.1035,6.0952l-9.2295,19.1562c-1.916,4.2378-6.7051,6.3564-14.3672,6.3564h-16.8926
		c-6.6172,0-9.9268-1.5376-9.9268-4.6152c0-0.4639,0.1455-1.1318,0.4355-2.0024l4.876-9.665
		c0.9863-1.8574,2.6699-2.7866,5.0508-2.7866h24.4678H330.192z M321.3971,71.6196h-14.6279l-2.4385,4.7017
		c0.0576,1.2778,1.1611,1.9155,3.3096,1.9155l13.7568,0.0874c1.2764-0.1743,2.4385-0.8408,3.4834-2.0029l2.5254-4.7017H321.3971z"/>
</g>
<path fill="#FF3050" d="M31.688,91.3425c-2.4423,1.4654-6.2648,1.722-5.8615,1.4654c5.3731-3.4192,9.5007-15.8201,4.3237-23.5658
	c-2.8583-4.2765-3.8352-6.7188-3.8352-14.5342c-0.4133,0.6168-1.9538,1.4654-2.9308,5.3731
	c-0.6983,2.7934,0.3444,6.9953-0.3401,9.7545c-0.5969,2.406-1.6779,4.8761-3.2754,6.8263c-3.223,3.9346-1.2691-3.3923-5.1768-6.8116
	c-0.4885,6.35-2.3192,8.9974-2.9289,9.9087c-1.6981,2.538-2.4442,9.1414,2.9289,12.5606c-1.9538,0.4885-5.3731-0.4885-8.3039-4.3962
	c-17.7937-23.7249,6.3562-45.4973,20.7967-60.5673C30.4085,23.8872,38.038,11.2346,38.038,0
	c9.7692,25.4,4.8638,35.1177,2.6025,39.1189c-2.1039,3.7226-4.0282,7.5863-4.1497,12.016
	c-0.0333,1.2139-0.1129,2.5191,0.2787,3.6229c0.3121,0.8799,1.2145,1.9674,2.0271,2.1368c0.8273,0.1725,2.1697-0.4092,2.7551-1.1066
	c6.2556-5.9647,5.4303-11.8453,6.7441-11.8263c1.3663,0.0198,4.8846,12.7-0.6747,25.7133
	C42.4342,83.0386,36.5726,88.4117,31.688,91.3425z"/>
</svg>
