<?xml version="1.0" encoding="utf-8"?>
<!-- Generator: Adobe Illustrator 23.1.0, SVG Export Plug-In . SVG Version: 6.00 Build 0)  -->
<svg version="1.1" id="fogata-logo" xmlns="http://www.w3.org/2000/svg" xmlns:xlink="http://www.w3.org/1999/xlink" x="0px"
	 y="0px" viewBox="0 0 936.4681 257.1907" fill="currentColor" enable-background="new 0 0 936.4681 257.1907" xml:space="preserve">
<g>
	<path d="M284.8846,257.1896h-21.8199c-1.9263,0-3.4882-1.5618-3.4882-3.4882v-111.091c0-10.3669,2.6201-20.0616,7.7871-28.8138
		c5.1516-8.7284,12.2592-15.7757,21.125-20.9456c8.7687-5.0608,18.5003-7.623,28.9382-7.623c1.9264,0,3.4882,1.5619,3.4882,3.4882
		v21.6314c0,1.9263-1.5618,3.4882-3.4882,3.4882c-3.8441,0-7.5742,0.7171-11.0856,2.1307
		c-3.4944,1.4074-6.6528,3.4956-9.3881,6.2065c-5.7518,6.0339-8.5814,12.7423-8.5814,20.4374v34.2761h29.0563
		c1.9263,0,3.4882,1.5618,3.4882,3.4882v21.6314c0,1.9263-1.5618,3.4882-3.4882,3.4882h-29.0551v48.2072
		C288.3728,255.6277,286.8109,257.1896,284.8846,257.1896z"/>
	<g>
		<path d="M393.4236,207.328c-10.4447,0-20.2438-2.6275-29.1244-7.8087c-8.8857-5.1783-15.9744-12.4017-21.0688-21.4696
			c-5.1902-8.7415-7.8433-18.7768-7.8433-29.7557v-0.184c0-10.7036,2.5787-20.6872,7.665-29.6734
			c5.096-9.0038,12.2512-16.197,21.2675-21.3804c8.7301-5.1659,18.598-7.7962,29.2902-7.7962
			c10.443,0.0011,20.2126,2.6298,29.0392,7.8127c0.0005,0,0.0011,0.0006,0.0011,0.0006c8.8028,5.1738,15.9091,12.3171,21.1221,21.23
			c5.1114,9.0957,7.6877,19.1067,7.6877,29.8068v0.184c0,10.7115-2.5804,20.6674-7.669,29.5911
			c-5.0869,8.9231-12.1615,16.134-21.0268,21.4332C413.8747,204.6329,404.0029,207.328,393.4236,207.328z M393.4248,117.3188
			c-8.2401,0-15.1183,2.8472-21.0279,8.7051c-5.7756,5.7262-8.5831,13.0109-8.5831,22.2701c0,9.2621,2.8075,16.5467,8.5831,22.2701
			c2.7337,2.7132,5.9567,4.8331,9.5806,6.3025c3.6301,1.4721,7.4817,2.2187,11.4473,2.2187c3.9662,0,7.8177-0.7466,11.4479-2.2187
			c3.6188-1.4676,6.8424-3.5875,9.58-6.3019c5.8994-5.8494,8.767-13.134,8.767-22.2707c0-9.1338-2.8682-16.4184-8.7687-22.2712
			C408.5397,120.1665,401.6615,117.3188,393.4248,117.3188z"/>
	</g>
	<g>
		<path d="M527.1129,257.1907c-1.9263,0-3.4882-1.5618-3.4882-3.4882v-21.8142c0-1.9263,1.5618-3.4882,3.4882-3.4882
			c3.8442,0,7.6117-0.7193,11.1975-2.1387c3.541-1.4057,6.726-3.4933,9.4625-6.2025c5.6263-5.9079,8.3957-12.6163,8.3957-20.4352
			v-1.7316c-8.6376,5.0495-18.3817,7.6031-29.0557,7.6031c-10.4418,0-20.2075-2.5946-29.025-7.7122
			c-8.8153-5.1142-15.8677-12.1723-20.9603-20.9779c-5.2084-8.6438-7.8649-18.3164-7.8649-28.6952
			c0-6.7374,1.161-13.31,3.4507-19.5364c2.2806-6.2076,5.5582-11.9168,9.7396-16.9686c5.222-6.3422,11.7113-11.4314,19.2804-15.1183
			c7.5759-3.6914,15.7241-5.6291,24.2186-5.7597l55.7104-0.0006c1.9263,0,3.4882,1.5619,3.4882,3.4882l-0.0023,105.4091
			c0,1.2888-0.0602,2.1784-0.2021,2.8733c-0.4451,9.8429-3.2917,19.0249-8.4639,27.2986
			c-5.2169,8.3378-12.2239,15.0558-20.828,19.9696C546.7459,254.7,537.1568,257.1907,527.1129,257.1907z M578.1577,200.9301
			c-0.0085,0.0273-0.0187,0.0573-0.0278,0.0908C578.1384,200.9909,578.1481,200.9602,578.1577,200.9301z M527.1118,119.3354
			c-4.4023,0-8.6075,0.9101-12.4988,2.7041c-3.8703,1.7833-7.2148,4.3869-9.9428,7.7405c-4.4545,5.41-6.6136,11.4007-6.6136,18.33
			c0,3.7863,0.746,7.4595,2.2176,10.9176c1.479,3.4757,3.6205,6.6164,6.3649,9.3365c2.7427,2.7217,5.9153,4.8462,9.4307,6.3155
			c3.4961,1.4636,7.2114,2.2057,11.043,2.2057c6.1225,0,11.2895-1.4829,15.7962-4.534c4.5289-3.0635,7.9341-6.814,10.121-11.1481
			c2.087-4.0343,3.1373-8.4292,3.1373-13.0932v-28.7747H527.1118z"/>
	</g>
	<g>
		<path d="M719.5978,205.8592h-21.8171c-1.9269,0-3.4882-1.5619-3.4882-3.4882v-4.1712c-3.3463,1.9207-6.9196,3.5058-10.6815,4.7361
			c-5.9385,1.9388-12.1814,2.9221-18.5588,2.9221c-10.4282,0-20.2155-2.5582-29.0892-7.6043
			c-8.9039-5.1937-16.0131-12.2751-21.1636-21.0682c-5.1636-8.8102-7.7825-18.5315-7.7825-28.8939
			c0-10.1109,2.5838-19.7039,7.6804-28.5118c5.0983-8.6841,12.0724-15.698,20.7401-20.8644
			c8.679-5.1772,18.2397-7.9324,28.4164-8.1896l55.744-0.0011c1.9269,0,3.4882,1.5619,3.4882,3.4882V202.371
			C723.0859,204.2974,721.5247,205.8592,719.5978,205.8592z M644.3969,127.8548c-5.6524,5.9635-8.4003,12.6492-8.4003,20.4369
			c0,3.8112,0.7239,7.535,2.1512,11.0686c1.4148,3.5109,3.5165,6.6624,6.2474,9.3688c6.0953,5.712,12.8752,8.5212,20.6572,8.5212
			c3.8339,0,7.5867-0.7443,11.1532-2.2119c3.5598-1.4676,6.7595-3.5909,9.5062-6.3104c2.7365-2.716,4.8757-5.8829,6.3564-9.4108
			c1.4761-3.5217,2.2244-7.2318,2.2244-11.0255v-28.7764h-29.2402C657.1795,119.5153,650.4217,122.2433,644.3969,127.8548z"/>
	</g>
	<g>
		<path d="M802.4341,257.1907c-10.4418,0-20.2081-2.5951-29.0262-7.7127c-8.8158-5.1131-15.8683-12.1706-20.9597-20.9768
			c-5.2084-8.6444-7.8655-18.3164-7.8655-28.6935V93.2983c0-1.9263,1.5613-3.4882,3.4882-3.4882h21.8193
			c1.9269,0,3.4882,1.5619,3.4882,3.4882v48.9413h29.0557c1.9269,0,3.4882,1.5618,3.4882,3.4882v21.8153
			c0,1.9263-1.5613,3.4882-3.4882,3.4882h-29.0557l0.0011,28.7764c0,3.7823,0.746,7.4555,2.2176,10.917
			c1.4796,3.478,3.621,6.6187,6.3632,9.3347c2.7422,2.7223,5.9147,4.8479,9.4301,6.3189c3.4996,1.4625,7.216,2.2045,11.0436,2.2045
			c1.9269,0,3.4882,1.5618,3.4882,3.4882v21.6314C805.9224,255.6289,804.3611,257.1907,802.4341,257.1907z"/>
	</g>
	<g>
		<path d="M932.9799,205.8592h-21.8193c-1.9269,0-3.4882-1.5619-3.4882-3.4882v-4.1706c-3.3452,1.9195-6.9196,3.5047-10.6815,4.7355
			c-5.9374,1.9388-12.1802,2.9221-18.5582,2.9221c-10.4271,0-20.2137-2.5582-29.0886-7.6043
			c-8.901-5.1908-16.0114-12.2728-21.1642-21.0676c-5.1641-8.8124-7.7814-18.5338-7.7814-28.8945
			c0-10.1091,2.5832-19.7017,7.6792-28.5112c5.0983-8.6853,12.0724-15.6985,20.7395-20.865
			c8.6796-5.1772,18.2414-7.9324,28.4175-8.1896l55.7451-0.0011c1.9269,0,3.4882,1.5619,3.4882,3.4882V202.371
			C936.4681,204.2974,934.9068,205.8592,932.9799,205.8592z M857.7773,127.8554c-5.6512,5.9624-8.3979,12.6481-8.3979,20.4363
			c0,3.8089,0.7233,7.5333,2.1494,11.0703c1.416,3.5103,3.5177,6.6624,6.2474,9.3671c6.0952,5.712,12.8751,8.5212,20.6566,8.5212
			c3.8356,0,7.5873-0.7443,11.1538-2.2119c3.5597-1.4676,6.7595-3.5909,9.5073-6.311c2.7365-2.7172,4.8757-5.8846,6.3553-9.4103
			c1.475-3.52,2.2233-7.2301,2.2233-11.0255v-28.7764h-29.2397C870.5605,119.5153,863.8033,122.2433,857.7773,127.8554z"/>
	</g>
</g>
<g>
	<g id="fogata-logo-flame-fills">
		<g>
			<polygon fill="#C3996B" points="73.9017,177.1239 14.8321,178.7835 11.8874,166.9106 77.0739,166.9106 			"/>
			<polyline fill="#C3996B" points="47.1584,195.9024 32.0828,176.0065 70.6645,175.8472 70.6645,212.1866 38.7939,219.1703 
				47.1584,195.9024 			"/>
			<polygon fill="#C3996B" points="108.57,177.1239 167.6389,178.7835 170.5843,166.9106 105.3979,166.9106 			"/>
			<polyline fill="#C3996B" points="137.6469,195.933 150.3889,176.0065 111.8072,175.8472 111.8072,212.1866 143.6771,219.1703 
				137.6469,195.933 			"/>
			<polyline fill="#C3996B" points="91.2765,183.8074 69.5969,195.2392 69.5969,169.8552 114.1438,169.8552 114.2373,195.2392 
				91.2765,183.8074 			"/>
			<polyline fill="#FFDD15" points="100.6412,67.5782 63.2197,112.3801 75.2297,169.6929 111.3286,169.8552 120.9614,123.236 
				100.6412,67.5782 			"/>
		</g>
	</g>
	<g id="fogata-logo-flame-logo">
		
			<linearGradient id="SVGID_1_" gradientUnits="userSpaceOnUse" x1="91.2318" y1="174.9501" x2="91.2318" y2="342.7284" gradientTransform="matrix(1 0 0 -1 0 344.643)">
			<stop  offset="0.4" style="stop-color:#6F00F6"/>
			<stop  offset="0.9515" style="stop-color:#4F00A8"/>
		</linearGradient>
		
			<path fill="url(#SVGID_1_)" stroke="#231F20" stroke-width="3.8292" stroke-linecap="round" stroke-linejoin="round" stroke-miterlimit="10" d="
			M106.2985,112.351c18.2646,16.566,13.0255,42.7587-1.3938,57.3419c67.0895-38.653,43.3024-107.0383-22.535-167.7783
			c8.638,20.6717,1.2751,33.9805-18.1972,53.845c-11.5773,14.0165-60.9482,62.326,13.9506,113.9332
			c-17.2032-36.9536-15.2212-67.111,23.6447-103.2145C94.4049,85.8038,95.2543,102.1568,106.2985,112.351z"/>
		
			<ellipse fill="#8A5D3B" stroke="#231F20" stroke-width="3.8292" stroke-linecap="round" stroke-linejoin="round" stroke-miterlimit="10" cx="91.2313" cy="206.0958" rx="22.9593" ry="21.3257"/>
		
			<path fill="none" stroke="#231F20" stroke-width="3.8292" stroke-linecap="round" stroke-linejoin="round" stroke-miterlimit="10" d="
			M68.2712,188.9217c0-11.1997,10.2792-20.278,22.9593-20.278s22.96,9.0783,22.96,20.278"/>
		
			<line fill="none" stroke="#231F20" stroke-width="3.8292" stroke-linecap="round" stroke-linejoin="round" stroke-miterlimit="10" x1="69.8198" y1="213.7941" x2="31.1469" y2="222.4044"/>
		
			<path fill="none" stroke="#231F20" stroke-width="3.8292" stroke-linecap="round" stroke-linejoin="round" stroke-miterlimit="10" d="
			M21.7653,177.4547l40.6725-8.4802c5.1648-1.0783,10.3726,0.5392,14.5893,4.0168"/>
		
			<line fill="none" stroke="#231F20" stroke-width="3.8292" stroke-linecap="round" stroke-linejoin="round" stroke-miterlimit="10" x1="112.642" y1="213.7941" x2="151.9252" y2="222.4044"/>
		
			<path fill="none" stroke="#231F20" stroke-width="3.8292" stroke-linecap="round" stroke-linejoin="round" stroke-miterlimit="10" d="
			M161.3076,177.4547l-40.6725-8.4802c-5.1649-1.0783-10.3741,0.5392-14.5901,4.0168"/>
		
			<line fill="none" stroke="#231F20" stroke-width="3.8292" stroke-linecap="round" stroke-linejoin="round" stroke-miterlimit="10" x1="68.2712" y1="188.9217" x2="68.2712" y2="206.0958"/>
		
			<line fill="none" stroke="#231F20" stroke-width="3.8292" stroke-linecap="round" stroke-linejoin="round" stroke-miterlimit="10" x1="114.1905" y1="188.9217" x2="114.1905" y2="206.0958"/>
		
			<path fill="#754C28" stroke="#231F20" stroke-width="3.8292" stroke-linecap="round" stroke-linejoin="round" stroke-miterlimit="10" d="
			M169.3252,181.8101c0.8241-8.7054,2.9454-14.8995,5.4314-14.8995c3.2043,0,5.8005,10.2784,5.8005,22.9593
			c0,12.6778-2.597,22.9593-5.8005,22.9593c-0.8011,0-1.5631-0.6425-2.2577-1.8051"/>
		
			<line fill="none" stroke="#231F20" stroke-width="3.8292" stroke-linecap="round" stroke-linejoin="round" stroke-miterlimit="10" x1="112.3119" y1="166.9106" x2="174.7559" y2="166.9106"/>
		
			<path fill="#8A5D3B" stroke="#231F20" stroke-width="3.8292" stroke-linecap="round" stroke-linejoin="round" stroke-miterlimit="10" d="
			M13.1473,181.8101c-0.824-8.7054-2.9462-14.8995-5.4329-14.8995c-3.2028,0-5.7997,10.2784-5.7997,22.9593
			c0,12.6778,2.597,22.9593,5.7997,22.9593c0.8011,0,1.5646-0.6425,2.2585-1.8051"/>
		
			<line fill="none" stroke="#231F20" stroke-width="3.8292" stroke-linecap="round" stroke-linejoin="round" stroke-miterlimit="10" x1="70.6193" y1="166.9106" x2="7.7143" y2="166.9106"/>
		
			<ellipse transform="matrix(0.9789 -0.2043 0.2043 0.9789 -40.288 9.6225)" fill="#8A5D3B" stroke="#231F20" stroke-width="3.8292" stroke-linecap="round" stroke-linejoin="round" stroke-miterlimit="9.9999" cx="26.4588" cy="199.9301" rx="18.8197" ry="22.9599"/>
		
			<ellipse transform="matrix(0.2043 -0.9789 0.9789 0.2043 -71.0917 312.3912)" fill="#8A5D3B" stroke="#231F20" stroke-width="3.8292" stroke-linecap="round" stroke-linejoin="round" stroke-miterlimit="9.9999" cx="156.6138" cy="199.9259" rx="22.9599" ry="18.8197"/>
	</g>
</g>
</svg>
