<?xml version="1.0" encoding="utf-8"?>
<!-- Generator: Adobe Illustrator 23.1.0, SVG Export Plug-In . SVG Version: 6.00 Build 0)  -->
<svg version="1.1" id="fogata-logotype" xmlns="http://www.w3.org/2000/svg" xmlns:xlink="http://www.w3.org/1999/xlink" x="0px"
	 y="0px" fill="currentColor" viewBox="0 0 676.8915 171.9628" enable-background="new 0 0 676.8915 171.9628" xml:space="preserve">
<g>
	<path d="M25.3081,171.9617H3.4882c-1.9263,0-3.4882-1.5618-3.4882-3.4882V57.3824c0-10.3669,2.6201-20.0616,7.7871-28.8138
		c5.1517-8.7284,12.2592-15.7757,21.125-20.9456C37.6808,2.5622,47.4124,0,57.8503,0c1.9263,0,3.4882,1.5618,3.4882,3.4882v21.6314
		c0,1.9263-1.5618,3.4882-3.4882,3.4882c-3.8442,0-7.5742,0.7171-11.0857,2.1307c-3.4944,1.4074-6.6528,3.4956-9.3881,6.2065
		c-5.7518,6.0339-8.5814,12.7423-8.5814,20.4374v34.2761h29.0563c1.9263,0,3.4882,1.5619,3.4882,3.4882v21.6314
		c0,1.9263-1.5618,3.4882-3.4882,3.4882H28.7962v48.2072C28.7962,170.3998,27.2344,171.9617,25.3081,171.9617z"/>
	<g>
		<path d="M133.8471,122.1001c-10.4447,0-20.2438-2.6275-29.1244-7.8087c-8.8857-5.1783-15.9744-12.4017-21.0688-21.4696
			c-5.1903-8.7415-7.8433-18.7768-7.8433-29.7557v-0.1839c0-10.7036,2.5787-20.6872,7.665-29.6734
			c5.096-9.0038,12.2512-16.197,21.2675-21.3805c8.7301-5.1658,18.598-7.7962,29.2902-7.7962
			c10.443,0.0011,20.2126,2.6298,29.0392,7.8126c0.0006,0,0.0011,0.0006,0.0011,0.0006c8.8028,5.1738,15.9092,12.3171,21.1221,21.23
			c5.1113,9.0957,7.6877,19.1067,7.6877,29.8068v0.1839c0,10.7115-2.5804,20.6674-7.669,29.5911
			c-5.0869,8.9231-12.1615,16.134-21.0267,21.4333C154.2982,119.405,144.4264,122.1001,133.8471,122.1001z M133.8483,32.0908
			c-8.2402,0-15.1183,2.8472-21.0279,8.7051c-5.7756,5.7262-8.5831,13.0109-8.5831,22.2701c0,9.2621,2.8075,16.5467,8.5831,22.2701
			c2.7337,2.7132,5.9567,4.8332,9.5806,6.3025c3.6301,1.4721,7.4816,2.2187,11.4473,2.2187c3.9662,0,7.8178-0.7466,11.4479-2.2187
			c3.6188-1.4676,6.8424-3.5875,9.58-6.3019c5.8994-5.8494,8.767-13.1341,8.767-22.2707c0-9.1338-2.8682-16.4184-8.7687-22.2712
			C148.9632,34.9386,142.085,32.0908,133.8483,32.0908z"/>
	</g>
	<g>
		<path d="M267.5364,171.9628c-1.9263,0-3.4882-1.5619-3.4882-3.4882v-21.8142c0-1.9263,1.5619-3.4882,3.4882-3.4882
			c3.8441,0,7.6117-0.7193,11.1975-2.1387c3.541-1.4057,6.726-3.4933,9.4625-6.2025c5.6263-5.9079,8.3957-12.6163,8.3957-20.4352
			v-1.7316c-8.6376,5.0495-18.3817,7.6032-29.0557,7.6032c-10.4418,0-20.2075-2.5946-29.025-7.7122
			c-8.8153-5.1142-15.8677-12.1723-20.9603-20.9779c-5.2084-8.6438-7.8649-18.3164-7.8649-28.6952
			c0-6.7374,1.161-13.3101,3.4507-19.5364c2.2806-6.2076,5.5582-11.9168,9.7395-16.9686
			c5.2221-6.3422,11.7113-11.4314,19.2804-15.1183c7.5759-3.6914,15.7241-5.6291,24.2186-5.7597l55.7104-0.0006
			c1.9263,0,3.4882,1.5618,3.4882,3.4882l-0.0023,105.4091c0,1.2888-0.0602,2.1784-0.2021,2.8733
			c-0.4451,9.8429-3.2917,19.0249-8.4638,27.2986c-5.2169,8.3378-12.224,15.0558-20.828,19.9696
			C287.1694,169.4721,277.5803,171.9628,267.5364,171.9628z M318.5812,115.7022c-0.0085,0.0273-0.0187,0.0573-0.0278,0.0908
			C318.5619,115.763,318.5715,115.7323,318.5812,115.7022z M267.5353,34.1074c-4.4023,0-8.6075,0.9101-12.4988,2.7041
			c-3.8703,1.7833-7.2148,4.3869-9.9428,7.7405c-4.4545,5.41-6.6136,11.4008-6.6136,18.33c0,3.7862,0.746,7.4595,2.2176,10.9176
			c1.479,3.4757,3.6205,6.6164,6.3649,9.3365c2.7427,2.7217,5.9153,4.8462,9.4307,6.3155
			c3.4961,1.4636,7.2114,2.2057,11.0431,2.2057c6.1225,0,11.2895-1.4829,15.7962-4.534c4.5289-3.0635,7.9341-6.814,10.1211-11.1481
			c2.087-4.0343,3.1373-8.4292,3.1373-13.0932V34.1074H267.5353z"/>
	</g>
	<g>
		<path d="M460.0212,120.6313h-21.817c-1.9269,0-3.4882-1.5618-3.4882-3.4882v-4.1712c-3.3463,1.9207-6.9196,3.5058-10.6814,4.7361
			c-5.9385,1.9388-12.1814,2.9221-18.5588,2.9221c-10.4282,0-20.2155-2.5582-29.0892-7.6043
			c-8.9038-5.1937-16.0131-12.2751-21.1636-21.0682c-5.1636-8.8102-7.7826-18.5315-7.7826-28.8939
			c0-10.1109,2.5838-19.7039,7.6804-28.5118c5.0983-8.6841,12.0724-15.698,20.7401-20.8644
			c8.679-5.1772,18.2397-7.9324,28.4164-8.1896l55.744-0.0011c1.9269,0,3.4882,1.5618,3.4882,3.4882v108.1581
			C463.5094,119.0695,461.9482,120.6313,460.0212,120.6313z M384.8203,42.6269c-5.6524,5.9635-8.4003,12.6492-8.4003,20.4369
			c0,3.8112,0.7239,7.535,2.1512,11.0686c1.4148,3.5109,3.5166,6.6624,6.2474,9.3688c6.0952,5.712,12.8752,8.5212,20.6572,8.5212
			c3.8339,0,7.5867-0.7443,11.1532-2.2119c3.5597-1.4676,6.7595-3.5909,9.5062-6.3104c2.7365-2.7161,4.8757-5.8829,6.3564-9.4108
			c1.4761-3.5217,2.2244-7.2318,2.2244-11.0255V34.2874h-29.2402C397.603,34.2874,390.8452,37.0154,384.8203,42.6269z"/>
	</g>
	<g>
		<path d="M542.8577,171.9628c-10.4418,0-20.2081-2.5951-29.0262-7.7127c-8.8159-5.1131-15.8683-12.1706-20.9598-20.9768
			c-5.2084-8.6444-7.8654-18.3164-7.8654-28.6935V8.0704c0-1.9263,1.5613-3.4882,3.4882-3.4882h21.8193
			c1.9269,0,3.4882,1.5618,3.4882,3.4882v48.9413h29.0557c1.9269,0,3.4882,1.5618,3.4882,3.4882v21.8153
			c0,1.9263-1.5613,3.4882-3.4882,3.4882h-29.0557l0.0012,28.7764c0,3.7823,0.746,7.4555,2.2176,10.917
			c1.4795,3.478,3.621,6.6187,6.3632,9.3347c2.7422,2.7223,5.9147,4.8479,9.4302,6.3189c3.4995,1.4625,7.2159,2.2045,11.0436,2.2045
			c1.9269,0,3.4882,1.5619,3.4882,3.4882v21.6314C546.3458,170.4009,544.7845,171.9628,542.8577,171.9628z"/>
	</g>
	<g>
		<path d="M673.4034,120.6313H651.584c-1.9269,0-3.4882-1.5618-3.4882-3.4882v-4.1706c-3.3452,1.9195-6.9196,3.5046-10.6815,4.7355
			c-5.9374,1.9388-12.1802,2.9221-18.5582,2.9221c-10.4271,0-20.2137-2.5582-29.0886-7.6043
			c-8.901-5.1908-16.0114-12.2728-21.1641-21.0676c-5.1642-8.8124-7.7814-18.5338-7.7814-28.8945
			c0-10.1091,2.5832-19.7017,7.6792-28.5112c5.0983-8.6853,12.0724-15.6985,20.7395-20.8649
			c8.6796-5.1772,18.2415-7.9324,28.4176-8.1896l55.7451-0.0011c1.9269,0,3.4882,1.5618,3.4882,3.4882v108.1581
			C676.8915,119.0695,675.3303,120.6313,673.4034,120.6313z M598.2007,42.6275c-5.6512,5.9624-8.3979,12.6481-8.3979,20.4363
			c0,3.809,0.7233,7.5333,2.1495,11.0703c1.4159,3.5103,3.5177,6.6624,6.2474,9.3671c6.0952,5.712,12.8752,8.5212,20.6566,8.5212
			c3.8356,0,7.5873-0.7443,11.1538-2.2119c3.5597-1.4676,6.7595-3.5909,9.5073-6.311c2.7365-2.7172,4.8757-5.8846,6.3553-9.4103
			c1.475-3.52,2.2233-7.2301,2.2233-11.0255V34.2874h-29.2397C610.9839,34.2874,604.2267,37.0154,598.2007,42.6275z"/>
	</g>
</g>
</svg>
