<?xml version="1.0" encoding="utf-8"?>
<!-- Generator: Adobe Illustrator 23.1.0, SVG Export Plug-In . SVG Version: 6.00 Build 0)  -->
<svg version="1.1" id="logo" xmlns="http://www.w3.org/2000/svg" xmlns:xlink="http://www.w3.org/1999/xlink" x="0px" y="0px"
	 viewBox="0 0 324.9425 120.1895" enable-background="new 0 0 324.9425 120.1895" xml:space="preserve">
<path fill="#2DE362" d="M56.6952,115.9844V4.2051C56.6952,1.8828,58.578,0,60.9003,0H58.286c-2.0137,0-3.7451,1.4277-4.1289,3.4053
	l-7.1699,37.0039c-0.1133,0.5967-0.2266,1.1953-0.3369,1.7959c-0.3506-2.3135-0.7139-4.5771-1.0889-6.7871l-5.502-31.9268
	C39.7118,1.4736,37.9618,0,35.9149,0H4.2055C2.9247,0,1.7142,0.583,0.9164,1.585c-0.7979,1.001-1.0962,2.3115-0.8101,3.5596
	l25.6289,111.7793c0.4375,1.9111,2.1377,3.2656,4.0986,3.2656h30.7686c0.0554,0,0.1082-0.0115,0.1632-0.0135
	C58.5072,120.103,56.6952,118.2605,56.6952,115.9844z"/>
<path fill="#2DE362" d="M117.1181,115.9844V4.2051c0-2.3223,1.8828-4.2051,4.2051-4.2051H107.496
	c-2.3223,0-4.2051,1.8828-4.2051,4.2051v35.3232h-7.9971V4.2051c0-0.0567-0.0145-0.1094-0.0167-0.1656
	c0.0168,0.4241-0.0242,0.8527-0.1385,1.272L64.66,117.0908c-0.4844,1.7756-2.0674,3.0137-3.8944,3.0851
	c0.0458,0.0015,0.0885,0.0135,0.1346,0.0135h30.1885c2.3223,0,4.2051-1.8828,4.2051-4.2051V75.2314h7.9971v40.7529
	c0,2.3223,1.8828,4.2051,4.2051,4.2051h13.8271C119.0009,120.1895,117.1181,118.3066,117.1181,115.9844z"/>
<path fill="#8AFF73" d="M117.1181,115.9844V4.2051c0-2.3223,1.8828-4.2051,4.2051-4.2051H107.496
	c-2.3223,0-4.2051,1.8828-4.2051,4.2051v35.3232h-7.9971V4.2051c0-0.0567-0.0145-0.1094-0.0167-0.1656
	c0.0168,0.4241-0.0242,0.8527-0.1385,1.272L64.66,117.0908c-0.4844,1.7756-2.0674,3.0137-3.8944,3.0851
	c0.0458,0.0015,0.0885,0.0135,0.1346,0.0135h30.1885c2.3223,0,4.2051-1.8828,4.2051-4.2051V75.2314h7.9971v40.7529
	c0,2.3223,1.8828,4.2051,4.2051,4.2051h13.8271C119.0009,120.1895,117.1181,118.3066,117.1181,115.9844z"/>
<path fill="#8AFF73" d="M64.66,117.0908L95.1386,5.3115c0.1143-0.4193,0.1554-0.8479,0.1385-1.272
	c-0.0071-0.1791-0.0244-0.3553-0.0532-0.528c-0.0193-0.1157-0.0453-0.2296-0.0743-0.3433
	c-0.0361-0.1414-0.0788-0.2797-0.1288-0.4149c-0.0328-0.0891-0.0626-0.1793-0.1015-0.2662
	c-0.0796-0.1771-0.1738-0.3456-0.2762-0.5087c-0.05-0.08-0.1033-0.1584-0.1591-0.2354c-0.1183-0.1628-0.2432-0.3204-0.3831-0.4644
	c-0.0489-0.0505-0.1031-0.0945-0.1544-0.1423c-0.1257-0.1171-0.2581-0.2267-0.3975-0.3279
	c-0.0552-0.0401-0.1084-0.0834-0.1654-0.1207c-0.1772-0.1159-0.3654-0.2155-0.5599-0.304
	c-0.0655-0.0299-0.1317-0.0581-0.1987-0.0845c-0.2049-0.0807-0.416-0.1492-0.6352-0.1971c-0.0499-0.011-0.101-0.0173-0.1514-0.0265
	c-0.2407-0.0435-0.4861-0.0739-0.7391-0.0746C91.0932,0.001,91.0871,0,91.0809,0H60.9003c-2.3223,0-4.2051,1.8828-4.2051,4.2051
	v111.7793c0,2.2761,1.812,4.1187,4.0704,4.1915C62.5926,120.1045,64.1756,118.8665,64.66,117.0908z"/>
<path fill="#2DE362" d="M64.66,117.0908L95.1386,5.3115c0.1143-0.4193,0.1554-0.8479,0.1385-1.272
	c-0.0071-0.1791-0.0244-0.3553-0.0532-0.528c-0.0193-0.1157-0.0453-0.2296-0.0743-0.3433
	c-0.0361-0.1414-0.0788-0.2797-0.1288-0.4149c-0.0328-0.0891-0.0626-0.1793-0.1015-0.2662
	c-0.0796-0.1771-0.1738-0.3456-0.2762-0.5087c-0.05-0.08-0.1033-0.1584-0.1591-0.2354c-0.1183-0.1628-0.2432-0.3204-0.3831-0.4644
	c-0.0489-0.0505-0.1031-0.0945-0.1544-0.1423c-0.1257-0.1171-0.2581-0.2267-0.3975-0.3279
	c-0.0552-0.0401-0.1084-0.0834-0.1654-0.1207c-0.1772-0.1159-0.3654-0.2155-0.5599-0.304
	c-0.0655-0.0299-0.1317-0.0581-0.1987-0.0845c-0.2049-0.0807-0.416-0.1492-0.6352-0.1971c-0.0499-0.011-0.101-0.0173-0.1514-0.0265
	c-0.2407-0.0435-0.4861-0.0739-0.7391-0.0746C91.0932,0.001,91.0871,0,91.0809,0H60.9003c-2.3223,0-4.2051,1.8828-4.2051,4.2051
	v111.7793c0,2.2761,1.812,4.1187,4.0704,4.1915C62.5926,120.1045,64.1756,118.8665,64.66,117.0908z"/>
<path fill="#2DE362" d="M185.7138,9.8926C177.9208,3.3281,166.0966,0,150.5712,0h-14.8857c2.3223,0,4.2051,1.8828,4.2051,4.2051
	v111.7793c0,2.3223-1.8828,4.2051-4.2051,4.2051h15.8262c2.3223,0,4.2051-1.8828,4.2051-4.2051V83.5576h0.501
	c12.1641,0,21.7529-2.5449,28.5225-7.5811c9.9014-7.4668,14.9219-18.8018,14.9219-33.6914
	C199.662,28.5957,194.9696,17.6973,185.7138,9.8926z"/>
<path fill="#8AFF73" d="M139.8905,115.9844V4.2051c0-2.3223-1.8828-4.2051-4.2051-4.2051h-14.3623
	c-2.3223,0-4.2051,1.8828-4.2051,4.2051v111.7793c0,2.3223,1.8828,4.2051,4.2051,4.2051h14.3623
	C138.0077,120.1895,139.8905,118.3066,139.8905,115.9844z"/>
<path fill="#8AFF73" d="M139.8905,115.9844V4.2051c0-2.3223-1.8828-4.2051-4.2051-4.2051h-14.3623
	c-2.3223,0-4.2051,1.8828-4.2051,4.2051v111.7793c0,2.3223,1.8828,4.2051,4.2051,4.2051h14.3623
	C138.0077,120.1895,139.8905,118.3066,139.8905,115.9844z"/>
<g>
	<path fill="#2DE362" d="M218.661,120.1494c-0.6958,0-1.2681-0.5479-1.2988-1.2422l-0.4209-9.5615l-1.856,9.7471
		c-0.1167,0.6133-0.6528,1.0566-1.2769,1.0566h-7.7461c-0.6377,0-1.1807-0.4619-1.2832-1.0908l-1.4102-8.6748l-0.4507,8.5342
		c-0.0366,0.6904-0.6069,1.2314-1.2983,1.2314h-10.1157c-0.3711,0-0.7241-0.1582-0.9712-0.4355
		c-0.2466-0.2773-0.3628-0.6465-0.3198-1.0146l4.1011-35.1758c0.0762-0.6553,0.6313-1.1494,1.291-1.1494h11.8242
		c0.6353,0,1.1772,0.459,1.2822,1.085l1.6172,9.666l1.8374-9.6934c0.1162-0.6133,0.6528-1.0576,1.2773-1.0576h11.7334
		c0.6694,0,1.229,0.5078,1.2939,1.1738l3.417,35.1758c0.0356,0.3652-0.085,0.7285-0.3311,1
		c-0.2466,0.2715-0.5962,0.4258-0.9629,0.4258H218.661z"/>
	<path fill="#2DE362" d="M228.5941,118.8496h-9.9331l-0.7061-16.0391l-0.2964-6.4014c-0.1064,1.2305-0.2275,2.4033-0.3643,3.5195
		s-0.3042,2.1982-0.5015,3.2471l-2.9844,15.6738h-7.7461l-2.5518-15.6973c-0.1519-0.9111-0.3569-2.4756-0.6147-4.6934
		c-0.0308-0.334-0.0991-1.0166-0.2051-2.0498l-0.228,6.4932l-0.8428,15.9473h-10.1157l4.1011-35.1758h11.8242l1.9819,11.8467
		c0.167,0.9717,0.3149,2.0273,0.4443,3.167c0.1289,1.1387,0.2466,2.377,0.353,3.7129c0.1973-2.2324,0.4707-4.2295,0.8203-5.9912
		l2.4146-12.7354h11.7334L228.5941,118.8496z"/>
	<path fill="#2DE362" d="M232.809,120.1494c-0.7178,0-1.2998-0.582-1.2998-1.2998V83.6738c0-0.7178,0.582-1.2998,1.2998-1.2998
		h9.5005c0.7178,0,1.2998,0.582,1.2998,1.2998v35.1758c0,0.7178-0.582,1.2998-1.2998,1.2998H232.809z"/>
	<path fill="#2DE362" d="M242.3095,118.8496h-9.5005V83.6738h9.5005V118.8496z"/>
	<path fill="#2DE362" d="M262.9276,120.1494c-0.5439,0-1.0308-0.3389-1.2192-0.8486l-4.1318-11.1748
		c0.0142,0.6182,0.021,1.2012,0.021,1.7471v8.9766c0,0.7178-0.582,1.2998-1.2998,1.2998h-9.0674
		c-0.7178,0-1.2998-0.582-1.2998-1.2998V83.6738c0-0.7178,0.582-1.2998,1.2998-1.2998h9.0674c0.5376,0,1.0195,0.3301,1.2129,0.832
		l4.1841,10.8496c-0.0444-0.9102-0.0669-1.7383-0.0669-2.4766v-7.9053c0-0.7178,0.582-1.2998,1.2998-1.2998h9.0674
		c0.7178,0,1.2998,0.582,1.2998,1.2998v35.1758c0,0.7178-0.582,1.2998-1.2998,1.2998H262.9276z"/>
	<path fill="#2DE362" d="M247.2304,118.8496V83.6738h9.0674l4.7617,12.3477c0.2578,0.7295,0.5503,1.5645,0.877,2.5059
		c0.3267,0.9424,0.687,2.0283,1.082,3.2578l0.98,3.0986c-0.3496-3.0527-0.6152-5.665-0.7974-7.8369
		c-0.1826-2.1719-0.2734-3.9941-0.2734-5.4678v-7.9053h9.0674v35.1758h-9.0674l-4.7847-12.9404
		c-0.501-1.3818-0.9531-2.6768-1.3555-3.8848c-0.4023-1.207-0.7554-2.3574-1.0591-3.4512c0.1973,2.4756,0.3418,4.6328,0.4326,6.4697
		c0.0913,1.8389,0.1367,3.4482,0.1367,4.8301v8.9766H247.2304z"/>
	<path fill="#2DE362" d="M276.9159,120.1494c-0.7178,0-1.2998-0.582-1.2998-1.2998V83.6738c0-0.7178,0.582-1.2998,1.2998-1.2998
		h17.6562c0.7178,0,1.2998,0.582,1.2998,1.2998v8.2695c0,0.7178-0.582,1.2998-1.2998,1.2998h-6.856v2.5264h6.0132
		c0.7178,0,1.2998,0.582,1.2998,1.2998v7.9512c0,0.7178-0.582,1.2998-1.2998,1.2998h-6.0132v2.7773h6.856
		c0.7178,0,1.2998,0.582,1.2998,1.2998v8.4521c0,0.7178-0.582,1.2998-1.2998,1.2998H276.9159z"/>
	<path fill="#2DE362" d="M276.9159,118.8496V83.6738h17.6562v8.2695h-8.1558v5.126h7.313v7.9512h-7.313v5.377h8.1558v8.4521
		H276.9159z"/>
	<path fill="#2DE362" d="M313.3676,120.1494c-0.542,0-1.0273-0.3359-1.2173-0.8438l-2.7686-7.3916v6.9355
		c0,0.7178-0.582,1.2998-1.2998,1.2998h-9.4546c-0.7178,0-1.2998-0.582-1.2998-1.2998V83.6738c0-0.7178,0.582-1.2998,1.2998-1.2998
		h9.728c4.5635,0,8.0698,0.9453,10.4219,2.8096c3.0186,2.4092,4.5474,5.8477,4.5474,10.2227c0,4.3066-1.688,7.4609-5.022,9.3955
		l6.5107,13.4824c0.1943,0.4033,0.168,0.8779-0.0698,1.2568s-0.6538,0.6084-1.1011,0.6084H313.3676z M309.4276,98.5771
		c0.415-0.1162,0.7705-0.3535,1.0918-0.7217c0.521-0.5967,0.7739-1.3604,0.7739-2.335c0-1.5674-0.5381-2.3457-1.8657-2.5703V98.5771
		z"/>
	<path fill="#2DE362" d="M323.6425,118.8496h-10.2749l-4.6934-12.5303c-0.0454-0.2129-0.125-0.4932-0.2388-0.8428
		c-0.1143-0.3496-0.2549-0.7666-0.4219-1.2529l0.0684,2.3232v12.3027h-9.4546V83.6738h9.728c4.2832,0,7.4878,0.8428,9.6143,2.5283
		c2.7031,2.1572,4.0552,5.2256,4.0552,9.2041c0,4.2529-1.8149,7.1924-5.4448,8.8174L323.6425,118.8496z M308.1278,99.9629h0.6377
		c1.0938,0,2.0049-0.417,2.7339-1.2529c0.729-0.835,1.0938-1.8984,1.0938-3.1895c0-2.6279-1.375-3.9414-4.1235-3.9414h-0.3418
		V99.9629z"/>
</g>
</svg>
