<?xml version="1.0" encoding="utf-8"?>
<!-- Generator: Adobe Illustrator 23.1.0, SVG Export Plug-In . SVG Version: 6.00 Build 0)  -->
<svg version="1.1" id="vapor-icon" xmlns="http://www.w3.org/2000/svg" xmlns:xlink="http://www.w3.org/1999/xlink" x="0px" y="0px"
	 viewBox="0 0 600 600" enable-background="new 0 0 600 600" xml:space="preserve">
<title>Squircle: x to 4th plus y to 4th equals radius to 4th</title>
<g>
	<g>
		<circle fill="#92EAFF" cx="300.0005" cy="300.0002" r="284.3275"/>
	</g>
</g>
<g id="vapor-icon-fill">
	<g>
		<path fill="#FFFFFF" d="M465.7545,276.1942c10.5182,0.6018,20.758-1.0193,30.1765-4.5663
			c0.7184-0.3573,1.4782-0.6469,2.2581-0.8927c14.6357-6.0784,27.1261-16.8925,35.3522-31.3
			c12.0541-21.1028,12.8252-46.1638,2.5967-67.6251c-11.2905-20.694-25.3845-40.0164-41.6777-57.1459
			c-8.4682,9.9489-18.6089,18.1099-29.8894,24.1645c0.726,19.3763-3.9645,38.8002-13.6426,55.7466
			c-10.0367,17.5695-24.5156,31.3902-41.5448,40.4502c0.8062,19.5054-3.8793,39.0735-13.6226,56.134
			c-18.7569,32.8447-54.558,52.4504-95.758,52.4504c-0.0025,0-0.0025,0-0.005,0c-0.7435,0-1.4669-0.069-2.1816-0.1718
			c-40.1956-0.5253-75.0627-20.0032-93.5801-52.424c-9.7446-17.063-14.4288-36.6311-13.6213-56.1353
			c-17.0304-9.0587-31.5106-22.8806-41.5473-40.4502c-9.6781-16.9489-14.3686-36.3703-13.6414-55.7466
			c-11.2516-6.0383-21.3686-14.1742-29.823-24.0893c-16.9627,17.814-31.5006,37.9727-43.0243,59.6259
			c-9.0587,20.9109-7.9153,44.8975,3.6899,65.2141c8.225,14.3987,20.7066,25.2115,35.3297,31.2924
			c0.7949,0.2495,1.5648,0.5441,2.2932,0.9077c8.1221,3.058,16.8524,4.6817,25.8459,4.6829c1.4356,0,2.8725-0.0401,4.3219-0.1241
			c8.5973-0.4789,15.9647,6.0721,16.4612,14.6682c0.4953,8.5948-6.0734,15.9659-14.6695,16.4587
			c-2.0587,0.1179-4.1175,0.178-6.1612,0.178c-6.0797,0-12.0704-0.5254-17.9294-1.5409
			c0.9416,10.2812,4.0811,20.2614,9.3534,29.4907c8.2287,14.405,20.7178,25.2215,35.3485,31.3037
			c0.7849,0.2445,1.5447,0.5367,2.2644,0.8927c8.1234,3.0618,16.8561,4.6855,25.8509,4.6867c1.4356,0,2.8737-0.0401,4.3219-0.1254
			c8.5886-0.4852,15.9659,6.0734,16.4612,14.6657c0.4965,8.5973-6.0709,15.9659-14.6682,16.4637
			c-2.0612,0.1191-4.1162,0.1793-6.1612,0.1793c-6.0772,0-12.0691-0.5316-17.9256-1.5409
			c0.9404,10.2774,4.0799,20.2627,9.3509,29.492c13.8721,24.2824,39.8496,38.3764,67.7869,36.7552
			c8.5798-0.4727,15.9659,6.0709,16.4625,14.6695c0.4965,8.5936-6.0709,15.9647-14.667,16.4612
			c-2.0625,0.1166-4.1187,0.1793-6.1649,0.1793c-5.9781,0-11.8748-0.5078-17.641-1.4883c0.8827,10.4604,4.031,20.6238,9.3922,30.006
			c13.1512,23.0261,37.1891,36.8844,63.4663,36.8857c1.4356,0,2.8737-0.0402,4.3231-0.1241
			c0.1015-0.0063,0.2006,0.0025,0.3022-0.0025c0.2156-0.0126,0.4376-0.0026,0.6582-0.0038
			c0.2407,0.0013,0.4852-0.0087,0.7234,0.0038c0.0991,0.005,0.1993-0.0038,0.2959,0.0025
			c27.9523,1.6187,53.9211-12.4753,67.7919-36.7615c5.3587-9.3809,8.5108-19.5468,9.3872-30.0073
			c-5.7638,0.9792-11.6591,1.4895-17.6385,1.4895c-2.0475,0-4.1012-0.0615-6.1662-0.1793
			c-8.5936-0.4965-15.1635-7.8663-14.6645-16.4612c0.4952-8.5986,7.8952-15.1422,16.4637-14.6695
			c27.921,1.6262,53.9148-12.4728,67.7856-36.7565c5.271-9.228,8.4118-19.2145,9.3534-29.4919
			c-5.8578,1.0106-11.851,1.5409-17.9282,1.5409c-2.05,0-4.0999-0.0602-6.1637-0.1793
			c-8.5936-0.4965-15.1635-7.8651-14.6645-16.4637c0.4952-8.5936,7.8626-15.1334,16.4637-14.6657
			c10.4981,0.6106,20.7191-1.0018,30.1264-4.5363c0.751-0.3786,1.5422-0.6833,2.3659-0.9366
			c14.6043-6.0872,27.0734-16.9,35.2896-31.2862c5.2735-9.2267,8.4118-19.2083,9.3559-29.4907
			c-5.8603,1.0168-11.8535,1.5409-17.9332,1.5409c-2.0475,0-4.0999-0.0602-6.1624-0.178
			c-8.5936-0.494-15.1622-7.8639-14.6657-16.4587C449.7874,282.2664,457.1748,275.7203,465.7545,276.1942z"/>
	</g>
</g>
<g id="vapor-icon-v-outlline">
	<g>
		<g>
			<path fill="#58595B" d="M556.6691,145.0126c-4.7921-7.1517-14.4752-9.0663-21.6294-4.2717
				c-7.1542,4.7933-9.0662,14.4777-4.2704,21.6294c15.5835,23.2493,16.6442,52.7801,2.7734,77.0638
				c-8.2275,14.4087-20.7166,25.2215-35.3522,31.2999c-0.7799,0.247-1.5397,0.5367-2.2581,0.8927
				c-9.4198,3.547-19.6596,5.1682-30.1765,4.5663c-8.5798-0.4727-15.9672,6.0721-16.4624,14.6682
				c-0.4965,8.5948,6.0734,15.9659,14.6657,16.4587c2.0638,0.1178,4.115,0.178,6.1624,0.178c6.0797,0,12.0729-0.5254,17.9332-1.5409
				c-0.9441,10.2812-4.0824,20.2627-9.3559,29.4907c-8.2174,14.3874-20.6852,25.1989-35.2895,31.2862
				c-0.8225,0.2533-1.6149,0.558-2.3659,0.9366c-9.4073,3.5345-19.6283,5.1469-30.1264,4.5363
				c-8.6011-0.4677-15.9684,6.0721-16.4637,14.6657c-0.4977,8.5973,6.0722,15.9659,14.6645,16.4637
				c2.0638,0.1191,4.1137,0.1793,6.1637,0.1793c6.0772,0,12.0704-0.5316,17.9282-1.541c-0.9416,10.2774-4.0824,20.264-9.3534,29.492
				c-13.8708,24.2837-39.8659,38.3827-67.7856,36.7565c-8.5685-0.4727-15.9684,6.0709-16.4637,14.6695
				c-0.4978,8.5936,6.0721,15.9647,14.6645,16.4612c2.065,0.1179,4.1188,0.1793,6.1662,0.1793
				c5.9806,0,11.876-0.5091,17.6385-1.4895c-0.8764,10.4605-4.0285,20.6251-9.3872,30.0073
				c-13.8708,24.2862-39.8396,38.3802-67.7919,36.7615c-0.0965-0.0063-0.1968,0.0025-0.2959-0.0025
				c-0.2382-0.0126-0.4827-0.0026-0.7234-0.0038c-0.2207,0.0013-0.4426-0.0087-0.6582,0.0038
				c-0.1016,0.005-0.2006-0.0038-0.3022,0.0025c-1.4494,0.0828-2.8875,0.1241-4.3231,0.1241
				c-26.2772-0.0013-50.3151-13.8596-63.4663-36.8857c-5.36-9.3809-8.5096-19.5455-9.3922-30.006
				c5.7663,0.9792,11.6629,1.4883,17.641,1.4883c2.045,0,4.1012-0.0627,6.1649-0.1793c8.5961-0.4965,15.1635-7.8663,14.667-16.4612
				c-0.4965-8.5986-7.8827-15.1422-16.4624-14.6695c-27.9372,1.6212-53.9148-12.4728-67.7869-36.7552
				c-5.271-9.2292-8.4105-19.2146-9.3509-29.492c5.8565,1.0093,11.8484,1.5409,17.9256,1.5409c2.045,0,4.0999-0.0602,6.1612-0.1793
				c8.5961-0.4965,15.1635-7.8651,14.6683-16.4637c-0.4965-8.5936-7.8726-15.151-16.4612-14.6657
				c-1.4482,0.084-2.8863,0.1254-4.3219,0.1254c-8.9948-0.0013-17.7275-1.6249-25.8509-4.6867
				c-0.7184-0.3561-1.4795-0.6482-2.2644-0.8927c-14.6306-6.0822-27.1198-16.8987-35.3485-31.3037
				c-5.2722-9.228-8.4118-19.2083-9.3534-29.4907c5.859,1.0156,11.8509,1.5409,17.9294,1.5409c2.0437,0,4.1012-0.0602,6.1612-0.178
				c8.5961-0.494,15.1635-7.8639,14.6695-16.4587c-0.4965-8.596-7.8639-15.1472-16.4612-14.6682
				c-1.4494,0.0828-2.8863,0.1241-4.3219,0.1241c-8.9935,0-17.7238-1.6249-25.8459-4.6829
				c-0.7285-0.3636-1.497-0.6582-2.2932-0.9077c-14.6231-6.081-27.1047-16.895-35.3297-31.2924
				c-13.8708-24.2836-12.8063-53.8132,2.7747-77.0638c4.7945-7.1517,2.8812-16.8361-4.2717-21.6293
				c-7.1504-4.7946-16.8348-2.8825-21.6294,4.2717c-22.2161,33.1493-23.7295,75.2558-3.9482,109.8883
				c9.9677,17.4504,24.3188,31.2109,41.2012,40.2734c-0.7272,19.3763,3.9645,38.7939,13.6439,55.7429
				c9.969,17.4479,24.3188,31.2084,41.2,40.2697c-0.7285,19.3738,3.9633,38.7977,13.6414,55.7466
				c10.0367,17.5683,24.5169,31.389,41.5473,40.4489c-0.8074,19.5029,3.8768,39.0735,13.6213,56.1328
				c18.7569,32.8434,53.0296,52.6033,90.4958,52.6033c1.7791,0,3.5671-0.0501,5.36-0.1429
				c1.7929,0.0928,3.5783,0.1429,5.3575,0.1429c37.4649-0.0025,71.7439-19.7612,90.4995-52.6033
				c9.7433-17.0593,14.43-36.6324,13.6226-56.134c17.0291-9.0587,31.5081-22.8806,41.5448-40.4489
				c9.6794-16.9476,14.3698-36.3728,13.6414-55.7466c16.8825-9.0625,31.2347-22.8217,41.2-40.2684
				c9.6806-16.9489,14.3711-36.369,13.6464-55.7441c16.8824-9.0625,31.231-22.8217,41.1987-40.2709
				C580.3998,220.2683,578.8853,178.1618,556.6691,145.0126z"/>
		</g>
		<g>
			<path fill="#58595B" d="M499.9684,77.2909c-7.4777-4.2692-17.0003-1.6713-21.272,5.8038
				c-8.2287,14.4075-20.7178,25.2215-35.3548,31.3c-0.7799,0.247-1.5384,0.5366-2.2543,0.8927
				c-9.4211,3.5483-19.6584,5.1682-30.1728,4.5638c-8.5998-0.4965-15.9684,6.0697-16.4637,14.667
				c-0.4978,8.5961,6.0721,15.9672,14.6645,16.4612c2.0638,0.1178,4.1137,0.178,6.1637,0.178
				c6.0772,0,12.0691-0.5278,17.9281-1.5409c-0.9416,10.2799-4.0824,20.264-9.3534,29.492
				c-13.8708,24.2862-39.8647,38.3676-67.7856,36.7578c-8.5673-0.4702-15.9672,6.0697-16.4637,14.667
				c-0.4978,8.5961,6.0722,15.9672,14.6645,16.4612c2.065,0.1203,4.1187,0.1793,6.1674,0.1793
				c5.9794,0,11.8748-0.509,17.6372-1.4895c-0.8764,10.4617-4.0285,20.6238-9.3872,30.0098
				c-13.0596,22.8669-37.3521,36.1747-66.8327,36.7076c-0.6093-0.0715-1.2249-0.1191-1.8544-0.1191
				c-0.1693,0-0.3335,0.0013-0.4977,0.0013c-29.5697-0.0013-55.0382-13.7129-68.1881-36.7364
				c-5.36-9.3835-8.5096-19.5455-9.391-30.0073c5.765,0.9792,11.6616,1.4883,17.6398,1.4883c2.0462,0,4.1024-0.0589,6.1649-0.1793
				c8.5961-0.4965,15.1647-7.8651,14.6682-16.4612c-0.4965-8.5961-7.8814-15.1535-16.4624-14.667
				c-27.9372,1.6187-53.916-12.4741-67.7869-36.7578c-5.271-9.2305-8.4105-19.2133-9.3509-29.4945
				c5.8578,1.0131,11.8484,1.5409,17.9269,1.5409c2.045,0,4.0999-0.0577,6.1612-0.1768
				c8.5961-0.4965,15.1635-7.8664,14.6682-16.4612c-0.4965-8.5973-7.8714-15.146-16.4612-14.6683
				c-10.5194,0.6056-20.758-1.0156-30.1803-4.5676c-0.7134-0.3548-1.4669-0.6419-2.2443-0.8864
				c-14.6344-6.0797-27.1298-16.8963-35.3598-31.3037c-4.2705-7.4764-13.7918-10.0768-21.2695-5.8051
				C92.56,81.4109,89.9609,90.9335,94.2326,98.41c9.969,17.4517,24.3188,31.2084,41.2,40.2696
				c-0.7285,19.3763,3.9633,38.7977,13.6414,55.7466c10.0367,17.5695,24.5181,31.3915,41.5473,40.4502
				c-0.8074,19.5042,3.8768,39.0723,13.6213,56.1353c18.5174,32.4209,53.3845,51.8987,93.5801,52.424
				c0.7134,0.1028,1.4381,0.1718,2.1816,0.1718c0.0025,0,0.0025,0,0.005,0c41.2,0,77.0011-19.607,95.758-52.4504
				c9.7433-17.0605,14.4288-36.6299,13.6226-56.134c17.0292-9.06,31.5081-22.8806,41.5448-40.4502
				c9.6781-16.9464,14.3686-36.3703,13.6426-55.7466c16.8812-9.0612,31.2322-22.818,41.1975-40.2684
				C510.0439,91.0852,507.4423,81.5613,499.9684,77.2909z"/>
		</g>
	</g>
</g>
<g id="vapor-icon-border">
	<g>
		<path fill="#58595B" d="M300.0006,600c-80.1332,0-155.4704-31.2055-212.1328-87.8679S0,380.1338,0,300.0006
			S31.2055,144.5308,87.8679,87.8679C144.5302,31.2055,219.8674,0,300.0006,0s155.4692,31.2055,212.1315,87.8679
			C568.7945,144.5308,600,219.8674,600,300.0006s-31.2055,155.4692-87.8679,212.1315S380.1338,600,300.0006,600z M300.0006,31.3451
			c-71.7607,0-139.226,27.9449-189.9684,78.6872S31.3451,228.24,31.3451,300.0006S59.29,439.2254,110.0323,489.9677
			s118.2077,78.6872,189.9684,78.6872s139.2248-27.9449,189.9671-78.6872s78.6872-118.2065,78.6872-189.9671
			s-27.9449-139.226-78.6872-189.9684S371.7613,31.3451,300.0006,31.3451z"/>
	</g>
</g>
</svg>
